<svg xmlns="http://www.w3.org/2000/svg" viewBox="0 0 48 48"><path d="M24,5C12.95,5,4,13.47,4,23.92C4,29.55,6.88,34.53,11,38l0.14,4.52c-0.04,1.85,1.97,3.03,3.57,2.1l3.83-2.51 c1.74,0.47,3.56,0.73,5.46,0.73c11.05,0,20-8.47,20-18.92S35.05,5,24,5z M34.7,19.71l-0.02,0.02l-6.27,8.32 c-0.78,1.03-2.25,1.24-3.28,0.46l-0.14-0.11l-0.24-0.21l-3.45-3.04l-6.62,4.58c-0.46,0.32-1.09,0.2-1.4-0.25 c-0.26-0.37-0.24-0.85,0.02-1.19l0.02-0.02l6.27-8.32c0.78-1.03,2.25-1.24,3.28-0.46l0.14,0.11l0.24,0.21l3.45,3.04l6.62-4.58 c0.46-0.32,1.09-0.2,1.4,0.25C34.98,18.89,34.96,19.37,34.7,19.71z"/></svg>