<?xml version="1.0" encoding="utf-8"?>
<svg xmlns="http://www.w3.org/2000/svg" viewBox="0 0 48 48">
  <path d="M42,11.5v25c0,3.03-2.47,5.5-5.5,5.5H31V28h3.62c0.51,0,0.94-0.38,1-0.88l0.37-3c0.04-0.28-0.05-0.57-0.24-0.78 C35.56,23.12,35.29,23,35,23h-4v-3.5c0-1.1,0.9-2,2-2h2c0.55,0,1-0.45,1-1v-3.38c0-0.51-0.4-0.94-0.91-0.99 C35.03,12.12,33.62,12,31.83,12c-4.4,0-6.83,2.62-6.83,7.37V23h-4c-0.55,0-1,0.45-1,1v3c0,0.55,0.45,1,1,1h4v14H11.5 C8.47,42,6,39.53,6,36.5v-25C6,8.47,8.47,6,11.5,6h25C39.53,6,42,8.47,42,11.5z" />
</svg>