<svg xmlns="http://www.w3.org/2000/svg" viewBox="0 0 48 48"><path d="M20.5,46c-1.378,0-2.5-1.121-2.5-2.5V26l-4.45,0.003c-1.367,0-2.489-1.11-2.501-2.476l-0.029-3.003 c-0.006-0.673,0.25-1.306,0.724-1.783C12.216,18.263,12.847,18,13.52,18H18v-4.5c0-6.746,3.442-10.462,9.691-10.462 c2.472,0,4.63,0.175,4.65,0.177c0.965,0.086,1.691,0.88,1.691,1.847v4.57c0,1.022-0.832,1.854-1.854,1.854h-2.908 c-1.217,0-2.208,0.99-2.208,2.208L27.006,18h4.438c0.713,0,1.393,0.306,1.867,0.838s0.699,1.243,0.616,1.951l-0.349,3 C33.432,25.05,32.364,26,31.096,26H27v17.5c0,1.379-1.122,2.5-2.5,2.5H20.5z"/></svg>