<?xml version="1.0" encoding="utf-8"?>
<svg xmlns="http://www.w3.org/2000/svg" viewBox="0 0 48 48">
  <path d="M36.5,6h-25C8.468,6,6,8.468,6,11.5v25c0,3.032,2.468,5.5,5.5,5.5h25c3.032,0,5.5-2.468,5.5-5.5v-25C42,8.468,39.532,6,36.5,6z M18,34c0,0.553-0.447,1-1,1h-3c-0.553,0-1-0.447-1-1V21c0-0.553,0.447-1,1-1h3c0.553,0,1,0.447,1,1V34z M15.5,18c-1.381,0-2.5-1.119-2.5-2.5c0-1.381,1.119-2.5,2.5-2.5s2.5,1.119,2.5,2.5C18,16.881,16.881,18,15.5,18z M35,34c0,0.553-0.447,1-1,1h-3c-0.553,0-1-0.447-1-1v-7.5c0-1.379-1.121-2.5-2.5-2.5S25,25.121,25,26.5V34c0,0.553-0.447,1-1,1h-3c-0.553,0-1-0.447-1-1V21c0-0.553,0.447-1,1-1h3c0.553,0,1,0.447,1,1v0.541C26.063,20.586,27.462,20,29,20c3.309,0,6,2.691,6,6V34z" />
</svg>