<svg xmlns="http://www.w3.org/2000/svg" viewBox="0 0 48 48"><path d="M24,4C12.972,4,4,12.972,4,24c0,8.648,5.527,16.01,13.227,18.794C17.147,41.578,17,39.22,17,38.417c0-2.001,0.229-2.602,0.229-2.602l2.267-9.429C19.161,25.406,19,24.307,19,23.281c0-1.891,1.219-3.781,3-3.781c1.322,0,2.5,1,2.5,2.953c0,0.579-0.08,1.259-0.281,2.054l-0.764,3.023c-0.229,0.865-0.406,2.529,0.338,3.506C24.217,31.591,24.957,31.926,26,32c4.122,0,6-4.406,6-8.5c0-8.262-7.182-8.5-8-8.5c-4.963,0-9,3.701-9,8.25c0,1.935,0.6,3.36,1.316,4.385c0.143,0.205,0.2,0.456,0.141,0.699l-0.559,2.324c-0.078,0.325-0.484,0.458-0.725,0.227C13.151,28.942,12,26.23,12,23.25C12,17.047,17.383,12,24,12c6.841,0,12,4.837,12,11.25C36,29.729,31.738,35,26.5,35c-1.941,0-3.461-0.523-4.542-1.544l-1.03,4.076c-0.519,1.89-1.152,3.619-2.803,5.584C19.984,43.689,21.956,44,24,44c11.028,0,20-8.972,20-20S35.028,4,24,4z"/></svg>