<svg xmlns="http://www.w3.org/2000/svg" viewBox="0 0 48 48"><path d="M11.5 6C8.4802259 6 6 8.4802259 6 11.5L6 36.5C6 39.519774 8.4802259 42 11.5 42L36.5 42C39.519774 42 42 39.519774 42 36.5L42 11.5C42 8.4802259 39.519774 6 36.5 6L11.5 6 z M 27.5 11C28.33 11 29 11.67 29 12.5C29 15.53 31.47 18 34.5 18C35.33 18 36 18.67 36 19.5C36 20.33 35.33 21 34.5 21C32.4 21 30.48 20.240469 29 18.980469L29 29C29 33.41 25.41 37 21 37C16.59 37 13 33.41 13 29C13 24.59 16.59 21 21 21C21.21 21 21.419141 21.009531 21.619141 21.019531C22.449141 21.089531 23.07 21.810859 23 22.630859C22.94 23.460859 22.220625 24.079531 21.390625 24.019531C21.260625 24.009531 21.13 24 21 24C18.24 24 16 26.24 16 29C16 31.76 18.24 34 21 34C23.76 34 26 31.76 26 29L26 12.5C26 11.67 26.67 11 27.5 11 z"/></svg>