<svg xmlns="http://www.w3.org/2000/svg" viewBox="0 0 48 48"><path d="M24,4C12.97,4,4,12.97,4,24c0,3.19,0.77,6.34,2.23,9.17l-2.14,7.66c-0.24,0.87,0.01,1.8,0.64,2.44 C5.21,43.74,5.85,44,6.5,44c0.23,0,0.45-0.03,0.67-0.09l7.66-2.14C17.66,43.23,20.82,44,24,44c11.03,0,20-8.97,20-20 C44,12.97,35.03,4,24,4z M34.36,31.37c-0.44,1.23-2.6,2.42-3.57,2.51c-0.97,0.09-1.88,0.44-6.34-1.32 c-5.38-2.12-8.78-7.63-9.04-7.99c-0.27-0.35-2.16-2.86-2.16-5.47c0-2.6,1.37-3.88,1.85-4.41c0.49-0.53,1.06-0.66,1.41-0.66 c0.36,0,0.71,0,1.02,0.01c0.37,0.02,0.79,0.04,1.19,0.92c0.47,1.04,1.5,3.66,1.63,3.93c0.13,0.26,0.22,0.57,0.04,0.92 c-0.17,0.35-0.26,0.57-0.53,0.88c-0.26,0.31-0.55,0.69-0.79,0.93c-0.26,0.26-0.54,0.55-0.23,1.08c0.31,0.53,1.37,2.26,2.94,3.66 c2.02,1.8,3.72,2.36,4.25,2.63c0.53,0.26,0.84,0.22,1.15-0.14c0.31-0.35,1.32-1.54,1.68-2.07c0.35-0.53,0.7-0.44,1.19-0.26 c0.48,0.17,3.08,1.45,3.61,1.72c0.53,0.26,0.88,0.39,1.01,0.61C34.8,29.07,34.8,30.13,34.36,31.37z"/></svg>