<svg xmlns="http://www.w3.org/2000/svg" viewBox="0 0 48 48"><path d="M12.300781 4C12.102781 4 11.958719 4.1898594 12.011719 4.3808594L14.681641 14.017578L14.681641 18.324219C14.681641 18.600219 14.905641 18.824219 15.181641 18.824219L16.585938 18.824219C16.861938 18.824219 17.085938 18.600219 17.085938 18.324219L17.085938 14.017578L19.791016 4.3808594C19.845016 4.1898594 19.700953 4 19.501953 4L17.878906 4C17.643906 4 17.441578 4.1586719 17.392578 4.3886719C17.079578 5.8446719 15.992875 10.917391 15.921875 11.400391L15.849609 11.400391C15.749609 10.728391 14.713156 5.820625 14.410156 4.390625C14.361156 4.159625 14.159828 4 13.923828 4L12.300781 4 z M 22.796875 7.78125C21.981875 7.78125 21.324219 7.9425781 20.824219 8.2675781C20.322219 8.5905781 19.95475 9.1065 19.71875 9.8125C19.48375 10.5205 19.365234 11.456094 19.365234 12.621094L19.365234 14.193359C19.365234 15.346359 19.468781 16.271797 19.675781 16.966797C19.881781 17.661797 20.22975 18.174906 20.71875 18.503906C21.20875 18.833906 21.882188 18.998 22.742188 19C23.579187 19 24.244422 18.838672 24.732422 18.513672C25.220422 18.188672 25.575969 17.677563 25.792969 16.976562C26.009969 16.274563 26.119141 15.348359 26.119141 14.193359L26.119141 12.621094C26.119141 11.455094 26.007203 10.522312 25.783203 9.8203125C25.559203 9.1203125 25.208609 8.6043906 24.724609 8.2753906C24.241609 7.9453906 23.597875 7.78125 22.796875 7.78125 z M 27.884766 8C27.608766 8 27.384766 8.224 27.384766 8.5L27.384766 16.082031C27.384766 17.083031 27.557437 17.822969 27.898438 18.292969C28.240437 18.762969 28.771234 18.998047 29.490234 18.998047C30.527234 18.998047 31.306219 18.497094 31.824219 17.496094L31.876953 17.496094L32.021484 18.400391C32.060484 18.643391 32.269625 18.822266 32.515625 18.822266L33.5 18.822266C33.776 18.822266 34 18.598266 34 18.322266L34 8.5C34 8.224 33.776 8 33.5 8L32.060547 8C31.784547 8 31.560547 8.224 31.560547 8.5L31.560547 16.595703C31.466547 16.796703 31.322953 16.959844 31.126953 17.089844C30.930953 17.220844 30.730578 17.285156 30.517578 17.285156C30.268578 17.285156 30.091375 17.183563 29.984375 16.976562C29.877375 16.769563 29.824219 16.427359 29.824219 15.943359L29.824219 8.5C29.824219 8.224 29.600219 8 29.324219 8L27.884766 8 z M 22.742188 9.4609375C23.083188 9.4609375 23.324984 9.6370937 23.458984 9.9960938C23.594984 10.354094 23.662109 10.923172 23.662109 11.701172L23.662109 15.076172C23.662109 15.878172 23.594938 16.455594 23.460938 16.808594C23.325937 17.161594 23.084141 17.338844 22.744141 17.339844C22.403141 17.339844 22.167109 17.161594 22.037109 16.808594C21.906109 16.455594 21.84375 15.876172 21.84375 15.076172L21.84375 11.701172C21.84375 10.924172 21.912875 10.356094 22.046875 9.9960938C22.180875 9.6390938 22.412188 9.4609375 22.742188 9.4609375 z M 11.5 21C8.467 21 6 23.468 6 26.5L6 38.5C6 41.532 8.467 44 11.5 44L36.5 44C39.533 44 42 41.532 42 38.5L42 26.5C42 23.468 39.533 21 36.5 21L11.5 21 z M 12.5 26L17.5 26C17.776 26 18 26.224 18 26.5L18 27.5C18 27.776 17.776 28 17.5 28L16 28L16 37.982422C16 38.258422 15.776 38.482422 15.5 38.482422L14.5 38.482422C14.224 38.482422 14 38.258422 14 37.982422L14 28L12.5 28C12.224 28 12 27.776 12 27.5L12 26.5C12 26.224 12.224 26 12.5 26 z M 24.5 26L25.5 26C25.776 26 26 26.224 26 26.5L26 30.613281L26.017578 30.613281C26.189578 30.277281 26.435953 30.006781 26.751953 29.800781C27.068953 29.593781 27.408437 29.492187 27.773438 29.492188C28.243437 29.492188 28.612906 29.616234 28.878906 29.865234C29.145906 30.114234 29.341938 30.518219 29.460938 31.074219C29.579937 31.632219 29.640625 32.404578 29.640625 33.392578L29.640625 34.785156L29.642578 34.785156C29.642578 36.099156 29.481063 37.066547 29.164062 37.685547C28.847062 38.304547 28.354594 38.613281 27.683594 38.613281C27.309594 38.613281 26.968156 38.525516 26.660156 38.353516C26.353156 38.181516 26.123703 37.946438 25.970703 37.648438L25.927734 37.648438L25.818359 38.099609C25.764359 38.324609 25.563031 38.482422 25.332031 38.482422L24.5 38.482422C24.224 38.482422 24 38.258422 24 37.982422L24 26.5C24 26.224 24.224 26 24.5 26 z M 33.220703 29.496094C33.900703 29.496094 34.424062 29.620141 34.789062 29.869141C35.152062 30.119141 35.409594 30.509156 35.558594 31.035156C35.706594 31.563156 35.78125 32.292656 35.78125 33.222656L35.78125 34.236328C35.78125 34.512328 35.55725 34.736328 35.28125 34.736328L32.460938 34.736328L32.460938 35.181641C32.460938 35.748641 32.477719 36.173078 32.511719 36.455078C32.546719 36.737078 32.61375 36.946219 32.71875 37.074219C32.82475 37.204219 32.987031 37.267578 33.207031 37.267578C33.504031 37.267578 33.735469 37.159875 33.855469 36.921875C33.920469 36.792875 33.955078 36.558094 33.955078 36.371094C33.955078 36.095094 34.184938 35.871094 34.460938 35.871094L35.220703 35.871094C35.496703 35.871094 35.722656 36.095094 35.722656 36.371094C35.691656 37.095094 35.468641 37.645625 35.056641 38.015625C34.610641 38.419625 33.980062 38.619141 33.164062 38.619141C32.186062 38.619141 31.500469 38.311266 31.105469 37.697266C30.710469 37.083266 30.517578 36.135609 30.517578 34.849609L30.517578 33.308594C30.517578 31.985594 30.721906 31.018203 31.128906 30.408203C31.535906 29.798203 32.233703 29.496094 33.220703 29.496094 z M 21.513672 29.660156L22.5 29.660156C22.776 29.660156 23 29.884156 23 30.160156L23 37.982422C23 38.258422 22.776 38.482422 22.5 38.482422L21.867188 38.482422C21.621188 38.482422 21.412047 38.3045 21.373047 38.0625L21.269531 37.404297L21.224609 37.404297C20.802609 38.221297 20.170172 38.628906 19.326172 38.628906C18.740172 38.628906 18.31025 38.437734 18.03125 38.052734C17.75225 37.669734 17.613281 37.067906 17.613281 36.253906L17.613281 30.164062C17.613281 29.888063 17.837281 29.664063 18.113281 29.664062L19.101562 29.664062C19.377562 29.664062 19.601562 29.888063 19.601562 30.164062L19.601562 36.138672C19.601562 36.530672 19.644469 36.814469 19.730469 36.980469C19.817469 37.149469 19.960063 37.232422 20.164062 37.232422C20.336063 37.232422 20.502156 37.179266 20.660156 37.072266C20.820156 36.967266 20.934672 36.830969 21.013672 36.667969L21.013672 30.160156C21.013672 29.884156 21.237672 29.660156 21.513672 29.660156 z M 33.177734 30.837891C32.966734 30.837891 32.808031 30.899438 32.707031 31.023438C32.606031 31.148438 32.538813 31.352719 32.507812 31.636719C32.472813 31.918719 32.457031 32.349828 32.457031 32.923828L32.457031 33.556641L33.910156 33.556641L33.910156 32.923828C33.910156 32.356828 33.890516 31.928719 33.853516 31.636719C33.815516 31.341719 33.747484 31.135625 33.646484 31.015625C33.545484 30.896625 33.390734 30.837891 33.177734 30.837891 z M 26.878906 30.902344C26.687906 30.902344 26.510656 30.976859 26.347656 31.130859C26.184656 31.284859 26.067 31.482703 26 31.720703L26 36.726562C26.087 36.880563 26.201844 36.995266 26.339844 37.072266C26.478844 37.147266 26.627969 37.1875 26.792969 37.1875C27.003969 37.1875 27.171875 37.112984 27.296875 36.958984C27.421875 36.804984 27.509547 36.546641 27.560547 36.181641C27.613547 35.818641 27.640625 35.313875 27.640625 34.671875L27.640625 33.535156C27.640625 32.845156 27.620172 32.3135 27.576172 31.9375C27.534172 31.5645 27.455656 31.295672 27.347656 31.138672C27.237656 30.981672 27.082906 30.902344 26.878906 30.902344 z"/></svg>