<svg xmlns="http://www.w3.org/2000/svg" viewBox="0 0 48 48"><path d="M23.857422 8.5C17.504717 8.5 11.602344 8.9526234 8.234375 9.65625 A 1.50015 1.50015 0 0 0 8.2128906 9.6621094C5.6754768 10.230693 3.2861897 12.048234 2.7832031 14.894531 A 1.50015 1.50015 0 0 0 2.78125 14.90625C2.394836 17.200265 2 20.190694 2 24.5C2 28.801151 2.3961903 31.712324 2.8847656 34.126953C3.4000756 36.889296 5.7342165 38.761817 8.3105469 39.337891 A 1.50015 1.50015 0 0 0 8.3476562 39.347656C11.86271 40.040284 17.598467 40.5 23.951172 40.5C30.303877 40.5 36.042686 40.04028 39.558594 39.347656 A 1.50015 1.50015 0 0 0 39.595703 39.337891C42.133117 38.769306 44.522404 36.951766 45.025391 34.105469 A 1.50015 1.50015 0 0 0 45.029297 34.083984C45.409789 31.743169 45.902812 28.755621 46 24.439453 A 1.50015 1.50015 0 0 0 46 24.40625C46 20.087697 45.50571 17.078675 45.023438 14.695312C44.512192 11.927074 42.175378 10.049478 39.595703 9.4726562 A 1.50015 1.50015 0 0 0 39.476562 9.4511719C36.0464 8.9689502 30.211115 8.5 23.857422 8.5 z M 20.15625 17.001953C20.526656 16.994297 20.909531 17.081906 21.269531 17.285156L29.873047 22.146484C31.324047 22.966484 31.324047 25.035469 29.873047 25.855469L21.269531 30.716797C19.830531 31.528797 18.037109 30.500328 18.037109 28.861328L18.037109 19.138672C18.037109 17.909422 19.045031 17.024922 20.15625 17.001953 z"/></svg>