<svg viewBox="0 0 500 500" fill="none" xmlns="http://www.w3.org/2000/svg"><path fill-rule="evenodd" clip-rule="evenodd" d="M251.868 1L19 83.1886L54.4906 388.906L249.377 498.49L446.132 390.773L481 83.1886L251.868 1ZM345.996 371.826C351.457 366.832 354.188 361.006 354.188 354.348C354.188 347.69 352.763 341.151 349.914 334.731C346.59 336.158 343.028 336.871 339.23 336.871C335.431 336.871 331.632 335.92 327.833 334.018C324.034 331.877 320.235 328.43 316.436 323.674L306.464 311.19C303.614 307.385 300.172 301.56 296.135 293.713C292.336 285.628 289.131 279.208 286.519 274.452C284.145 269.696 279.277 258.639 271.917 241.281C280.465 231.056 291.624 218.928 305.395 204.899C319.166 190.87 329.257 179.812 335.668 171.728C342.079 163.405 345.284 155.915 345.284 149.257C345.284 130.947 330.326 121.792 300.409 121.792C298.035 154.369 284.264 184.568 259.096 212.389C248.411 186.233 235.946 164.951 221.7 148.543C207.691 132.136 192.733 123.932 176.825 123.932C167.802 123.932 160.679 126.548 155.456 131.779C150.232 137.011 147.62 144.144 147.62 153.18C173.976 153.18 200.924 183.498 228.467 244.134C218.969 255.31 206.148 269.458 190.002 286.579C174.094 303.7 162.935 316.54 156.524 325.101C150.351 333.423 147.264 340.913 147.264 347.571C147.264 367.308 162.223 377.176 192.139 377.176C194.988 345.788 211.728 311.666 242.357 274.809C251.379 295.734 260.401 314.4 269.424 330.807C275.36 341.746 280.821 350.187 285.807 356.132C291.03 362.076 297.204 367.427 304.327 372.182C311.45 376.938 318.81 379.316 326.408 379.316C334.243 379.316 340.773 376.819 345.996 371.826Z" fill="currentColor"/></svg>