<svg viewBox="0 0 512 512" xmlns="http://www.w3.org/2000/svg"><path fill="currentColor" d="M67.2857 134.286H438.714C446.604 134.286 453 127.89 453 120V84.2857C453 76.3955 446.604 70 438.714 70H67.2857C59.3955 70 53 76.3955 53 84.2857V120C53 127.89 59.3955 134.286 67.2857 134.286ZM67.2857 277.143H438.714C446.604 277.143 453 270.747 453 262.857V227.143C453 219.253 446.604 212.857 438.714 212.857H67.2857C59.3955 212.857 53 219.253 53 227.143V262.857C53 270.747 59.3955 277.143 67.2857 277.143ZM67.2857 420H438.714C446.604 420 453 413.604 453 405.714V370C453 362.11 446.604 355.714 438.714 355.714H67.2857C59.3955 355.714 53 362.11 53 370V405.714C53 413.604 59.3955 420 67.2857 420Z"/></svg>